<mxfile host="Electron" agent="Mozilla/5.0 (Macintosh; Intel Mac OS X 10_15_7) AppleWebKit/537.36 (KHTML, like Gecko) draw.io/24.7.5 Chrome/126.0.6478.183 Electron/31.3.0 Safari/537.36" version="24.7.5">
  <diagram name="Page-1" id="ZNFxOjxP5cYbFs4iC51F">
    <mxGraphModel dx="1434" dy="769" grid="1" gridSize="10" guides="1" tooltips="1" connect="1" arrows="1" fold="1" page="1" pageScale="1" pageWidth="850" pageHeight="1100" math="0" shadow="0">
      <root>
        <mxCell id="0" />
        <mxCell id="1" parent="0" />
        <mxCell id="Bwr7v-AEFsfxMpoZ5kJj-4" value="" style="whiteSpace=wrap;html=1;aspect=fixed;fillColor=#B3B3B3;strokeColor=#666666;gradientColor=#b3b3b3;fontSize=24;" parent="1" vertex="1">
          <mxGeometry x="800" y="100" width="40" height="40" as="geometry" />
        </mxCell>
        <mxCell id="Bwr7v-AEFsfxMpoZ5kJj-5" value="" style="whiteSpace=wrap;html=1;aspect=fixed;fillColor=#B3B3B3;strokeColor=#666666;gradientColor=#b3b3b3;fontSize=24;" parent="1" vertex="1">
          <mxGeometry x="800" y="140" width="40" height="40" as="geometry" />
        </mxCell>
        <mxCell id="Bwr7v-AEFsfxMpoZ5kJj-6" value="" style="whiteSpace=wrap;html=1;aspect=fixed;fillColor=#B3B3B3;strokeColor=#666666;gradientColor=#b3b3b3;fontSize=24;" parent="1" vertex="1">
          <mxGeometry x="800" y="180" width="40" height="40" as="geometry" />
        </mxCell>
        <mxCell id="Bwr7v-AEFsfxMpoZ5kJj-7" value="e" style="whiteSpace=wrap;html=1;aspect=fixed;fontSize=24;" parent="1" vertex="1">
          <mxGeometry x="800" y="220" width="40" height="40" as="geometry" />
        </mxCell>
        <mxCell id="Bwr7v-AEFsfxMpoZ5kJj-8" value="d" style="whiteSpace=wrap;html=1;aspect=fixed;fontSize=24;" parent="1" vertex="1">
          <mxGeometry x="800" y="260" width="40" height="40" as="geometry" />
        </mxCell>
        <mxCell id="Bwr7v-AEFsfxMpoZ5kJj-9" value="c" style="whiteSpace=wrap;html=1;aspect=fixed;fontSize=24;" parent="1" vertex="1">
          <mxGeometry x="800" y="300" width="40" height="40" as="geometry" />
        </mxCell>
        <mxCell id="Bwr7v-AEFsfxMpoZ5kJj-10" value="" style="whiteSpace=wrap;html=1;aspect=fixed;fontSize=24;" parent="1" vertex="1">
          <mxGeometry x="180" y="40" width="40" height="40" as="geometry" />
        </mxCell>
        <mxCell id="Bwr7v-AEFsfxMpoZ5kJj-11" value="5" style="whiteSpace=wrap;html=1;aspect=fixed;fontSize=24;" parent="1" vertex="1">
          <mxGeometry x="140" y="40" width="40" height="40" as="geometry" />
        </mxCell>
        <mxCell id="Bwr7v-AEFsfxMpoZ5kJj-12" value="7" style="whiteSpace=wrap;html=1;aspect=fixed;fillColor=none;strokeColor=none;gradientColor=#b3b3b3;align=right;fontSize=24;" parent="1" vertex="1">
          <mxGeometry x="760" y="100" width="40" height="40" as="geometry" />
        </mxCell>
        <mxCell id="Bwr7v-AEFsfxMpoZ5kJj-13" value="6" style="whiteSpace=wrap;html=1;aspect=fixed;fillColor=none;strokeColor=none;gradientColor=#b3b3b3;align=right;fontSize=24;" parent="1" vertex="1">
          <mxGeometry x="760" y="140" width="40" height="40" as="geometry" />
        </mxCell>
        <mxCell id="Bwr7v-AEFsfxMpoZ5kJj-14" value="5" style="whiteSpace=wrap;html=1;aspect=fixed;fillColor=none;strokeColor=none;gradientColor=#b3b3b3;align=right;fontSize=24;" parent="1" vertex="1">
          <mxGeometry x="760" y="180" width="40" height="40" as="geometry" />
        </mxCell>
        <mxCell id="Bwr7v-AEFsfxMpoZ5kJj-15" value="4" style="whiteSpace=wrap;html=1;aspect=fixed;fillColor=none;strokeColor=none;align=right;fontSize=24;" parent="1" vertex="1">
          <mxGeometry x="760" y="220" width="40" height="40" as="geometry" />
        </mxCell>
        <mxCell id="Bwr7v-AEFsfxMpoZ5kJj-16" value="3" style="whiteSpace=wrap;html=1;aspect=fixed;fillColor=none;strokeColor=none;align=right;fontSize=24;" parent="1" vertex="1">
          <mxGeometry x="760" y="260" width="40" height="40" as="geometry" />
        </mxCell>
        <mxCell id="Bwr7v-AEFsfxMpoZ5kJj-17" value="2" style="whiteSpace=wrap;html=1;aspect=fixed;fillColor=none;strokeColor=none;align=right;fontSize=24;" parent="1" vertex="1">
          <mxGeometry x="760" y="300" width="40" height="40" as="geometry" />
        </mxCell>
        <mxCell id="Bwr7v-AEFsfxMpoZ5kJj-18" value="1" style="whiteSpace=wrap;html=1;aspect=fixed;fillColor=none;strokeColor=none;align=right;fontSize=24;" parent="1" vertex="1">
          <mxGeometry x="760" y="340" width="40" height="40" as="geometry" />
        </mxCell>
        <mxCell id="Bwr7v-AEFsfxMpoZ5kJj-19" value="0" style="whiteSpace=wrap;html=1;aspect=fixed;fillColor=none;strokeColor=none;align=right;fontSize=24;" parent="1" vertex="1">
          <mxGeometry x="760" y="380" width="40" height="40" as="geometry" />
        </mxCell>
        <mxCell id="Bwr7v-AEFsfxMpoZ5kJj-20" value="&lt;font face=&quot;Courier New&quot;&gt;list&lt;/font&gt;" style="whiteSpace=wrap;html=1;fontSize=24;align=left;fillColor=none;strokeColor=none;" parent="1" vertex="1">
          <mxGeometry x="40" y="40" width="70" height="40" as="geometry" />
        </mxCell>
        <mxCell id="Bwr7v-AEFsfxMpoZ5kJj-29" value="" style="endArrow=classic;html=1;rounded=0;exitX=0.833;exitY=0.5;exitDx=0;exitDy=0;exitPerimeter=0;strokeColor=default;entryX=0;entryY=0.5;entryDx=0;entryDy=0;" parent="1" source="Bwr7v-AEFsfxMpoZ5kJj-20" target="Bwr7v-AEFsfxMpoZ5kJj-11" edge="1">
          <mxGeometry width="50" height="50" relative="1" as="geometry">
            <mxPoint x="710" y="60" as="sourcePoint" />
            <mxPoint x="120" y="60" as="targetPoint" />
            <Array as="points" />
          </mxGeometry>
        </mxCell>
        <mxCell id="Bwr7v-AEFsfxMpoZ5kJj-46" value="&lt;font face=&quot;Courier New&quot;&gt;item&lt;/font&gt;" style="whiteSpace=wrap;html=1;fontSize=24;align=left;fillColor=none;" parent="1" vertex="1">
          <mxGeometry x="200" y="120" width="120" height="40" as="geometry" />
        </mxCell>
        <mxCell id="Bwr7v-AEFsfxMpoZ5kJj-48" value="&lt;font face=&quot;Courier New&quot;&gt;next&lt;/font&gt;" style="whiteSpace=wrap;html=1;fontSize=24;align=left;fillColor=none;" parent="1" vertex="1">
          <mxGeometry x="200" y="160" width="120" height="40" as="geometry" />
        </mxCell>
        <mxCell id="Bwr7v-AEFsfxMpoZ5kJj-47" value="5" style="whiteSpace=wrap;html=1;fontSize=24;align=center;fillColor=none;strokeColor=none;" parent="1" vertex="1">
          <mxGeometry x="280" y="120" width="40" height="40" as="geometry" />
        </mxCell>
        <mxCell id="Bwr7v-AEFsfxMpoZ5kJj-66" value="&lt;font face=&quot;Courier New&quot;&gt;_top&lt;/font&gt;" style="whiteSpace=wrap;html=1;fontSize=24;align=left;fillColor=none;" parent="1" vertex="1">
          <mxGeometry x="40" y="120" width="100" height="40" as="geometry" />
        </mxCell>
        <mxCell id="Bwr7v-AEFsfxMpoZ5kJj-69" value="" style="endArrow=classic;html=1;rounded=0;exitX=0.833;exitY=0.5;exitDx=0;exitDy=0;exitPerimeter=0;entryX=0;entryY=0.5;entryDx=0;entryDy=0;" parent="1" source="Bwr7v-AEFsfxMpoZ5kJj-66" target="Bwr7v-AEFsfxMpoZ5kJj-46" edge="1">
          <mxGeometry width="50" height="50" relative="1" as="geometry">
            <mxPoint x="630" y="600" as="sourcePoint" />
            <mxPoint x="590" y="370" as="targetPoint" />
            <Array as="points" />
          </mxGeometry>
        </mxCell>
        <mxCell id="dOWbaqf8AtoHvRZ55A_9-4" value="" style="endArrow=classic;html=1;rounded=0;strokeColor=default;entryX=0;entryY=0.5;entryDx=0;entryDy=0;" edge="1" parent="1" target="dOWbaqf8AtoHvRZ55A_9-6">
          <mxGeometry width="50" height="50" relative="1" as="geometry">
            <mxPoint x="200" y="60" as="sourcePoint" />
            <mxPoint x="170" y="120" as="targetPoint" />
            <Array as="points" />
          </mxGeometry>
        </mxCell>
        <mxCell id="dOWbaqf8AtoHvRZ55A_9-5" value="" style="whiteSpace=wrap;html=1;aspect=fixed;fontSize=24;" vertex="1" parent="1">
          <mxGeometry x="300" y="40" width="40" height="40" as="geometry" />
        </mxCell>
        <mxCell id="dOWbaqf8AtoHvRZ55A_9-6" value="2" style="whiteSpace=wrap;html=1;aspect=fixed;fontSize=24;" vertex="1" parent="1">
          <mxGeometry x="260" y="40" width="40" height="40" as="geometry" />
        </mxCell>
        <mxCell id="dOWbaqf8AtoHvRZ55A_9-7" value="" style="endArrow=classic;html=1;rounded=0;strokeColor=default;entryX=0;entryY=0.5;entryDx=0;entryDy=0;" edge="1" target="dOWbaqf8AtoHvRZ55A_9-9" parent="1">
          <mxGeometry width="50" height="50" relative="1" as="geometry">
            <mxPoint x="320" y="60" as="sourcePoint" />
            <mxPoint x="290" y="120" as="targetPoint" />
            <Array as="points" />
          </mxGeometry>
        </mxCell>
        <mxCell id="dOWbaqf8AtoHvRZ55A_9-8" value="" style="whiteSpace=wrap;html=1;aspect=fixed;fontSize=24;" vertex="1" parent="1">
          <mxGeometry x="420" y="40" width="40" height="40" as="geometry" />
        </mxCell>
        <mxCell id="dOWbaqf8AtoHvRZ55A_9-9" value="3" style="whiteSpace=wrap;html=1;aspect=fixed;fontSize=24;" vertex="1" parent="1">
          <mxGeometry x="380" y="40" width="40" height="40" as="geometry" />
        </mxCell>
        <mxCell id="dOWbaqf8AtoHvRZ55A_9-10" value="" style="endArrow=oval;html=1;rounded=0;strokeColor=default;entryX=0;entryY=0.5;entryDx=0;entryDy=0;endFill=1;" edge="1" parent="1">
          <mxGeometry width="50" height="50" relative="1" as="geometry">
            <mxPoint x="440" y="59.5" as="sourcePoint" />
            <mxPoint x="500" y="59.5" as="targetPoint" />
            <Array as="points" />
          </mxGeometry>
        </mxCell>
        <mxCell id="dOWbaqf8AtoHvRZ55A_9-12" value="&lt;font face=&quot;Courier New&quot;&gt;item&lt;/font&gt;" style="whiteSpace=wrap;html=1;fontSize=24;align=left;fillColor=none;" vertex="1" parent="1">
          <mxGeometry x="200" y="240" width="120" height="40" as="geometry" />
        </mxCell>
        <mxCell id="dOWbaqf8AtoHvRZ55A_9-13" value="&lt;font face=&quot;Courier New&quot;&gt;next&lt;/font&gt;" style="whiteSpace=wrap;html=1;fontSize=24;align=left;fillColor=none;" vertex="1" parent="1">
          <mxGeometry x="200" y="280" width="120" height="40" as="geometry" />
        </mxCell>
        <mxCell id="dOWbaqf8AtoHvRZ55A_9-14" value="2" style="whiteSpace=wrap;html=1;fontSize=24;align=center;fillColor=none;strokeColor=none;" vertex="1" parent="1">
          <mxGeometry x="280" y="240" width="40" height="40" as="geometry" />
        </mxCell>
        <mxCell id="dOWbaqf8AtoHvRZ55A_9-15" value="" style="endArrow=classic;html=1;rounded=0;entryX=0.5;entryY=0;entryDx=0;entryDy=0;" edge="1" parent="1" target="dOWbaqf8AtoHvRZ55A_9-14">
          <mxGeometry width="50" height="50" relative="1" as="geometry">
            <mxPoint x="299" y="182" as="sourcePoint" />
            <mxPoint x="450" y="370" as="targetPoint" />
          </mxGeometry>
        </mxCell>
        <mxCell id="dOWbaqf8AtoHvRZ55A_9-16" value="&lt;font face=&quot;Courier New&quot;&gt;item&lt;/font&gt;" style="whiteSpace=wrap;html=1;fontSize=24;align=left;fillColor=none;" vertex="1" parent="1">
          <mxGeometry x="200" y="360" width="120" height="40" as="geometry" />
        </mxCell>
        <mxCell id="dOWbaqf8AtoHvRZ55A_9-17" value="&lt;font face=&quot;Courier New&quot;&gt;next&lt;/font&gt;" style="whiteSpace=wrap;html=1;fontSize=24;align=left;fillColor=none;" vertex="1" parent="1">
          <mxGeometry x="200" y="400" width="120" height="40" as="geometry" />
        </mxCell>
        <mxCell id="dOWbaqf8AtoHvRZ55A_9-18" value="7" style="whiteSpace=wrap;html=1;fontSize=24;align=center;fillColor=none;strokeColor=none;" vertex="1" parent="1">
          <mxGeometry x="280" y="360" width="40" height="40" as="geometry" />
        </mxCell>
        <mxCell id="dOWbaqf8AtoHvRZ55A_9-19" value="" style="endArrow=classic;html=1;rounded=0;entryX=0.5;entryY=0;entryDx=0;entryDy=0;" edge="1" target="dOWbaqf8AtoHvRZ55A_9-18" parent="1">
          <mxGeometry width="50" height="50" relative="1" as="geometry">
            <mxPoint x="299" y="300" as="sourcePoint" />
            <mxPoint x="450" y="488" as="targetPoint" />
            <Array as="points">
              <mxPoint x="300" y="340" />
            </Array>
          </mxGeometry>
        </mxCell>
        <mxCell id="dOWbaqf8AtoHvRZ55A_9-20" value="" style="endArrow=oval;html=1;rounded=0;entryX=0.5;entryY=0;entryDx=0;entryDy=0;endFill=1;" edge="1" parent="1">
          <mxGeometry width="50" height="50" relative="1" as="geometry">
            <mxPoint x="300" y="420" as="sourcePoint" />
            <mxPoint x="301" y="480" as="targetPoint" />
            <Array as="points">
              <mxPoint x="301" y="460" />
            </Array>
          </mxGeometry>
        </mxCell>
        <mxCell id="dOWbaqf8AtoHvRZ55A_9-21" value="&lt;font face=&quot;Courier New&quot;&gt;_front&lt;/font&gt;" style="whiteSpace=wrap;html=1;fontSize=24;align=left;fillColor=none;" vertex="1" parent="1">
          <mxGeometry x="40" y="560" width="120" height="40" as="geometry" />
        </mxCell>
        <mxCell id="dOWbaqf8AtoHvRZ55A_9-22" value="&lt;font face=&quot;Courier New&quot;&gt;_back&lt;/font&gt;" style="whiteSpace=wrap;html=1;fontSize=24;align=left;fillColor=none;" vertex="1" parent="1">
          <mxGeometry x="40" y="600" width="120" height="40" as="geometry" />
        </mxCell>
        <mxCell id="dOWbaqf8AtoHvRZ55A_9-24" value="&lt;font face=&quot;Courier New&quot;&gt;item&lt;/font&gt;" style="whiteSpace=wrap;html=1;fontSize=24;align=left;fillColor=none;" vertex="1" parent="1">
          <mxGeometry x="200" y="560" width="120" height="40" as="geometry" />
        </mxCell>
        <mxCell id="dOWbaqf8AtoHvRZ55A_9-25" value="&lt;font face=&quot;Courier New&quot;&gt;next&lt;/font&gt;" style="whiteSpace=wrap;html=1;fontSize=24;align=left;fillColor=none;" vertex="1" parent="1">
          <mxGeometry x="200" y="600" width="120" height="40" as="geometry" />
        </mxCell>
        <mxCell id="dOWbaqf8AtoHvRZ55A_9-26" value="5" style="whiteSpace=wrap;html=1;fontSize=24;align=center;fillColor=none;strokeColor=none;" vertex="1" parent="1">
          <mxGeometry x="280" y="560" width="40" height="40" as="geometry" />
        </mxCell>
        <mxCell id="dOWbaqf8AtoHvRZ55A_9-27" value="&lt;font face=&quot;Courier New&quot;&gt;item&lt;/font&gt;" style="whiteSpace=wrap;html=1;fontSize=24;align=left;fillColor=none;" vertex="1" parent="1">
          <mxGeometry x="360" y="560" width="120" height="40" as="geometry" />
        </mxCell>
        <mxCell id="dOWbaqf8AtoHvRZ55A_9-28" value="&lt;font face=&quot;Courier New&quot;&gt;next&lt;/font&gt;" style="whiteSpace=wrap;html=1;fontSize=24;align=left;fillColor=none;" vertex="1" parent="1">
          <mxGeometry x="360" y="600" width="120" height="40" as="geometry" />
        </mxCell>
        <mxCell id="dOWbaqf8AtoHvRZ55A_9-29" value="2" style="whiteSpace=wrap;html=1;fontSize=24;align=center;fillColor=none;strokeColor=none;" vertex="1" parent="1">
          <mxGeometry x="440" y="560" width="40" height="40" as="geometry" />
        </mxCell>
        <mxCell id="dOWbaqf8AtoHvRZ55A_9-30" value="&lt;font face=&quot;Courier New&quot;&gt;item&lt;/font&gt;" style="whiteSpace=wrap;html=1;fontSize=24;align=left;fillColor=none;" vertex="1" parent="1">
          <mxGeometry x="520" y="560" width="120" height="40" as="geometry" />
        </mxCell>
        <mxCell id="dOWbaqf8AtoHvRZ55A_9-31" value="&lt;font face=&quot;Courier New&quot;&gt;next&lt;/font&gt;" style="whiteSpace=wrap;html=1;fontSize=24;align=left;fillColor=none;" vertex="1" parent="1">
          <mxGeometry x="520" y="600" width="120" height="40" as="geometry" />
        </mxCell>
        <mxCell id="dOWbaqf8AtoHvRZ55A_9-32" value="7" style="whiteSpace=wrap;html=1;fontSize=24;align=center;fillColor=none;strokeColor=none;" vertex="1" parent="1">
          <mxGeometry x="600" y="560" width="40" height="40" as="geometry" />
        </mxCell>
        <mxCell id="dOWbaqf8AtoHvRZ55A_9-33" value="" style="endArrow=classic;html=1;rounded=0;entryX=0;entryY=0.5;entryDx=0;entryDy=0;" edge="1" parent="1" target="dOWbaqf8AtoHvRZ55A_9-24">
          <mxGeometry width="50" height="50" relative="1" as="geometry">
            <mxPoint x="140" y="580" as="sourcePoint" />
            <mxPoint x="450" y="430" as="targetPoint" />
          </mxGeometry>
        </mxCell>
        <mxCell id="dOWbaqf8AtoHvRZ55A_9-34" value="" style="endArrow=classic;html=1;rounded=0;entryX=0;entryY=0.5;entryDx=0;entryDy=0;" edge="1" parent="1">
          <mxGeometry width="50" height="50" relative="1" as="geometry">
            <mxPoint x="300" y="619.5" as="sourcePoint" />
            <mxPoint x="360" y="619.5" as="targetPoint" />
          </mxGeometry>
        </mxCell>
        <mxCell id="dOWbaqf8AtoHvRZ55A_9-35" value="" style="endArrow=classic;html=1;rounded=0;entryX=0;entryY=0.5;entryDx=0;entryDy=0;" edge="1" parent="1">
          <mxGeometry width="50" height="50" relative="1" as="geometry">
            <mxPoint x="460" y="619.5" as="sourcePoint" />
            <mxPoint x="520" y="619.5" as="targetPoint" />
          </mxGeometry>
        </mxCell>
        <mxCell id="dOWbaqf8AtoHvRZ55A_9-36" value="" style="endArrow=oval;html=1;rounded=0;strokeColor=default;entryX=0;entryY=0.5;entryDx=0;entryDy=0;endFill=1;" edge="1" parent="1">
          <mxGeometry width="50" height="50" relative="1" as="geometry">
            <mxPoint x="620" y="619.5" as="sourcePoint" />
            <mxPoint x="680" y="619.5" as="targetPoint" />
            <Array as="points" />
          </mxGeometry>
        </mxCell>
        <mxCell id="dOWbaqf8AtoHvRZ55A_9-37" value="" style="endArrow=classic;html=1;rounded=0;" edge="1" parent="1" target="dOWbaqf8AtoHvRZ55A_9-31">
          <mxGeometry width="50" height="50" relative="1" as="geometry">
            <mxPoint x="140" y="620" as="sourcePoint" />
            <mxPoint x="590" y="670" as="targetPoint" />
            <Array as="points">
              <mxPoint x="140" y="660" />
              <mxPoint x="580" y="660" />
            </Array>
          </mxGeometry>
        </mxCell>
      </root>
    </mxGraphModel>
  </diagram>
</mxfile>
